<svg width="1329" height="784" viewBox="0 0 1329 784" fill="none" xmlns="http://www.w3.org/2000/svg">
<path d="M0 59C0 26.4152 26.4152 0 59 0H1270C1302.58 0 1329 26.4152 1329 59V105C1329 137.585 1302.58 164 1270 164H59C26.4152 164 0 137.585 0 105V59Z" fill="#D9D9D9"/>
<path d="M0 679C0 646.415 26.4152 620 59 620H1270C1302.58 620 1329 646.415 1329 679V725C1329 757.585 1302.58 784 1270 784H59C26.4152 784 0 757.585 0 725V679Z" fill="#D9D9D9"/>
<path d="M0 369C0 336.415 26.4152 310 59 310H1270C1302.58 310 1329 336.415 1329 369V415C1329 447.585 1302.58 474 1270 474H59C26.4152 474 0 447.585 0 415V369Z" fill="#D9D9D9"/>
</svg>
